<mxfile host="Electron" modified="2024-06-26T11:30:02.728Z" agent="Mozilla/5.0 (Windows NT 10.0; Win64; x64) AppleWebKit/537.36 (KHTML, like Gecko) draw.io/24.4.13 Chrome/124.0.6367.207 Electron/30.0.6 Safari/537.36" etag="slsHeRcplxPGsA8OR3wH" version="24.4.13" type="device">
  <diagram name="Page-1" id="ktCp2K8LZhTt_rozi5CK">
    <mxGraphModel dx="304" dy="225" grid="1" gridSize="10" guides="1" tooltips="1" connect="1" arrows="1" fold="1" page="1" pageScale="1" pageWidth="827" pageHeight="1169" math="0" shadow="0">
      <root>
        <mxCell id="0" />
        <mxCell id="1" parent="0" />
        <mxCell id="ixln0vm2sEUoa1xezSHx-1" value="Ebene 2: Backend" style="shape=umlFrame;whiteSpace=wrap;html=1;pointerEvents=0;width=140;height=20;" parent="1" vertex="1">
          <mxGeometry x="40" y="40" width="760" height="520" as="geometry" />
        </mxCell>
        <mxCell id="ixln0vm2sEUoa1xezSHx-2" value="" style="whiteSpace=wrap;html=1;aspect=fixed;" parent="1" vertex="1">
          <mxGeometry x="635" y="20" width="40" height="40" as="geometry" />
        </mxCell>
        <mxCell id="ixln0vm2sEUoa1xezSHx-3" value="" style="whiteSpace=wrap;html=1;aspect=fixed;" parent="1" vertex="1">
          <mxGeometry x="20" y="480" width="40" height="40" as="geometry" />
        </mxCell>
        <mxCell id="ixln0vm2sEUoa1xezSHx-4" value="&lt;div&gt;&amp;lt;&amp;lt;Rust&amp;gt;&amp;gt;&lt;/div&gt;&lt;div&gt;Router&lt;/div&gt;" style="html=1;dropTarget=0;whiteSpace=wrap;" parent="1" vertex="1">
          <mxGeometry x="590" y="115" width="130" height="50" as="geometry" />
        </mxCell>
        <mxCell id="ixln0vm2sEUoa1xezSHx-5" value="" style="shape=module;jettyWidth=8;jettyHeight=4;" parent="ixln0vm2sEUoa1xezSHx-4" vertex="1">
          <mxGeometry x="1" width="20" height="20" relative="1" as="geometry">
            <mxPoint x="-27" y="7" as="offset" />
          </mxGeometry>
        </mxCell>
        <mxCell id="ixln0vm2sEUoa1xezSHx-6" value="Ebene 3: Server" style="shape=umlFrame;whiteSpace=wrap;html=1;pointerEvents=0;width=140;height=20;" parent="1" vertex="1">
          <mxGeometry x="340" y="80" width="420" height="200" as="geometry" />
        </mxCell>
        <mxCell id="g3Y2_PPJZfDxpz8Cd1QU-16" style="edgeStyle=orthogonalEdgeStyle;rounded=0;orthogonalLoop=1;jettySize=auto;html=1;exitX=0;exitY=0.5;exitDx=0;exitDy=0;entryX=1;entryY=0.5;entryDx=0;entryDy=0;" parent="1" source="ixln0vm2sEUoa1xezSHx-7" target="g3Y2_PPJZfDxpz8Cd1QU-6" edge="1">
          <mxGeometry relative="1" as="geometry" />
        </mxCell>
        <mxCell id="ixln0vm2sEUoa1xezSHx-7" value="&lt;div&gt;&amp;lt;&amp;lt;Rust&amp;gt;&amp;gt;&lt;/div&gt;&lt;div&gt;Python Utils&lt;/div&gt;" style="html=1;dropTarget=0;whiteSpace=wrap;" parent="1" vertex="1">
          <mxGeometry x="590" y="200" width="130" height="50" as="geometry" />
        </mxCell>
        <mxCell id="ixln0vm2sEUoa1xezSHx-8" value="" style="shape=module;jettyWidth=8;jettyHeight=4;" parent="ixln0vm2sEUoa1xezSHx-7" vertex="1">
          <mxGeometry x="1" width="20" height="20" relative="1" as="geometry">
            <mxPoint x="-27" y="7" as="offset" />
          </mxGeometry>
        </mxCell>
        <mxCell id="ixln0vm2sEUoa1xezSHx-9" value="&lt;div&gt;&amp;lt;&amp;lt;Rust&amp;gt;&amp;gt;&lt;/div&gt;&lt;div&gt;Postgre Utils&lt;/div&gt;" style="html=1;dropTarget=0;whiteSpace=wrap;" parent="1" vertex="1">
          <mxGeometry x="380" y="115" width="120" height="50" as="geometry" />
        </mxCell>
        <mxCell id="ixln0vm2sEUoa1xezSHx-10" value="" style="shape=module;jettyWidth=8;jettyHeight=4;" parent="ixln0vm2sEUoa1xezSHx-9" vertex="1">
          <mxGeometry x="1" width="20" height="20" relative="1" as="geometry">
            <mxPoint x="-27" y="7" as="offset" />
          </mxGeometry>
        </mxCell>
        <mxCell id="ixln0vm2sEUoa1xezSHx-11" value="" style="endArrow=classic;html=1;rounded=0;entryX=0.5;entryY=0;entryDx=0;entryDy=0;exitX=0.5;exitY=1;exitDx=0;exitDy=0;" parent="1" source="ixln0vm2sEUoa1xezSHx-2" target="ixln0vm2sEUoa1xezSHx-4" edge="1">
          <mxGeometry width="50" height="50" relative="1" as="geometry">
            <mxPoint x="360" y="225" as="sourcePoint" />
            <mxPoint x="480" y="225" as="targetPoint" />
          </mxGeometry>
        </mxCell>
        <mxCell id="ixln0vm2sEUoa1xezSHx-12" value="HTTPS" style="edgeLabel;html=1;align=center;verticalAlign=middle;resizable=0;points=[];" parent="ixln0vm2sEUoa1xezSHx-11" vertex="1" connectable="0">
          <mxGeometry x="-0.15" y="1" relative="1" as="geometry">
            <mxPoint x="-1" y="14" as="offset" />
          </mxGeometry>
        </mxCell>
        <mxCell id="ixln0vm2sEUoa1xezSHx-13" value="" style="endArrow=classic;html=1;rounded=0;entryX=1;entryY=0.5;entryDx=0;entryDy=0;exitX=0;exitY=0.5;exitDx=0;exitDy=0;" parent="1" source="ixln0vm2sEUoa1xezSHx-4" target="ixln0vm2sEUoa1xezSHx-9" edge="1">
          <mxGeometry width="50" height="50" relative="1" as="geometry">
            <mxPoint x="585" y="70" as="sourcePoint" />
            <mxPoint x="585" y="130" as="targetPoint" />
          </mxGeometry>
        </mxCell>
        <mxCell id="ixln0vm2sEUoa1xezSHx-14" value="nutzt" style="edgeLabel;html=1;align=center;verticalAlign=middle;resizable=0;points=[];" parent="ixln0vm2sEUoa1xezSHx-13" vertex="1" connectable="0">
          <mxGeometry x="-0.15" y="1" relative="1" as="geometry">
            <mxPoint x="-15" y="-1" as="offset" />
          </mxGeometry>
        </mxCell>
        <mxCell id="ixln0vm2sEUoa1xezSHx-15" value="" style="endArrow=classic;html=1;rounded=0;entryX=0.5;entryY=0;entryDx=0;entryDy=0;exitX=0.5;exitY=1;exitDx=0;exitDy=0;" parent="1" source="ixln0vm2sEUoa1xezSHx-4" target="ixln0vm2sEUoa1xezSHx-7" edge="1">
          <mxGeometry width="50" height="50" relative="1" as="geometry">
            <mxPoint x="520" y="155" as="sourcePoint" />
            <mxPoint x="390" y="155" as="targetPoint" />
          </mxGeometry>
        </mxCell>
        <mxCell id="ixln0vm2sEUoa1xezSHx-16" value="nutzt" style="edgeLabel;html=1;align=center;verticalAlign=middle;resizable=0;points=[];" parent="ixln0vm2sEUoa1xezSHx-15" vertex="1" connectable="0">
          <mxGeometry x="-0.15" y="1" relative="1" as="geometry">
            <mxPoint x="-1" y="3" as="offset" />
          </mxGeometry>
        </mxCell>
        <mxCell id="ixln0vm2sEUoa1xezSHx-18" value="" style="endArrow=classic;html=1;rounded=0;entryX=1;entryY=0.5;entryDx=0;entryDy=0;exitX=0;exitY=0.5;exitDx=0;exitDy=0;" parent="1" source="ixln0vm2sEUoa1xezSHx-9" target="g3Y2_PPJZfDxpz8Cd1QU-1" edge="1">
          <mxGeometry width="50" height="50" relative="1" as="geometry">
            <mxPoint x="340" y="220" as="sourcePoint" />
            <mxPoint x="178.79999999999995" y="145.2800000000001" as="targetPoint" />
          </mxGeometry>
        </mxCell>
        <mxCell id="ixln0vm2sEUoa1xezSHx-19" value="nutzt" style="edgeLabel;html=1;align=center;verticalAlign=middle;resizable=0;points=[];" parent="ixln0vm2sEUoa1xezSHx-18" vertex="1" connectable="0">
          <mxGeometry x="-0.15" y="1" relative="1" as="geometry">
            <mxPoint x="-26" y="-1" as="offset" />
          </mxGeometry>
        </mxCell>
        <mxCell id="ixln0vm2sEUoa1xezSHx-20" value="Ebene 3: KI Skript" style="shape=umlFrame;whiteSpace=wrap;html=1;pointerEvents=0;width=140;height=20;" parent="1" vertex="1">
          <mxGeometry x="130" y="320" width="630" height="200" as="geometry" />
        </mxCell>
        <mxCell id="ixln0vm2sEUoa1xezSHx-21" value="&lt;div&gt;&amp;lt;&amp;lt;Python&amp;gt;&amp;gt;&lt;/div&gt;&lt;div&gt;Initialisiere Vectorstore&lt;/div&gt;" style="html=1;dropTarget=0;whiteSpace=wrap;" parent="1" vertex="1">
          <mxGeometry x="575" y="440" width="160" height="50" as="geometry" />
        </mxCell>
        <mxCell id="ixln0vm2sEUoa1xezSHx-22" value="" style="shape=module;jettyWidth=8;jettyHeight=4;" parent="ixln0vm2sEUoa1xezSHx-21" vertex="1">
          <mxGeometry x="1" width="20" height="20" relative="1" as="geometry">
            <mxPoint x="-27" y="7" as="offset" />
          </mxGeometry>
        </mxCell>
        <mxCell id="ixln0vm2sEUoa1xezSHx-23" value="&lt;div&gt;&amp;lt;&amp;lt;Python&amp;gt;&amp;gt;&lt;/div&gt;&lt;div&gt;Rag Query&lt;/div&gt;" style="html=1;dropTarget=0;whiteSpace=wrap;" parent="1" vertex="1">
          <mxGeometry x="355" y="440" width="130" height="50" as="geometry" />
        </mxCell>
        <mxCell id="ixln0vm2sEUoa1xezSHx-24" value="" style="shape=module;jettyWidth=8;jettyHeight=4;" parent="ixln0vm2sEUoa1xezSHx-23" vertex="1">
          <mxGeometry x="1" width="20" height="20" relative="1" as="geometry">
            <mxPoint x="-27" y="7" as="offset" />
          </mxGeometry>
        </mxCell>
        <mxCell id="g3Y2_PPJZfDxpz8Cd1QU-1" value="" style="whiteSpace=wrap;html=1;aspect=fixed;" parent="1" vertex="1">
          <mxGeometry x="20" y="120" width="40" height="40" as="geometry" />
        </mxCell>
        <mxCell id="g3Y2_PPJZfDxpz8Cd1QU-4" value="" style="endArrow=classic;html=1;rounded=0;entryX=1;entryY=0.5;entryDx=0;entryDy=0;exitX=0;exitY=0.5;exitDx=0;exitDy=0;" parent="1" source="ixln0vm2sEUoa1xezSHx-23" target="ixln0vm2sEUoa1xezSHx-3" edge="1">
          <mxGeometry width="50" height="50" relative="1" as="geometry">
            <mxPoint x="220" y="620" as="sourcePoint" />
            <mxPoint x="40" y="620" as="targetPoint" />
            <Array as="points">
              <mxPoint x="320" y="465" />
              <mxPoint x="320" y="500" />
            </Array>
          </mxGeometry>
        </mxCell>
        <mxCell id="g3Y2_PPJZfDxpz8Cd1QU-6" value="&lt;div&gt;&amp;lt;&amp;lt;Python&amp;gt;&amp;gt;&lt;/div&gt;&lt;div&gt;Event Storming&lt;/div&gt;" style="html=1;dropTarget=0;whiteSpace=wrap;" parent="1" vertex="1">
          <mxGeometry x="355" y="360" width="130" height="50" as="geometry" />
        </mxCell>
        <mxCell id="g3Y2_PPJZfDxpz8Cd1QU-7" value="" style="shape=module;jettyWidth=8;jettyHeight=4;" parent="g3Y2_PPJZfDxpz8Cd1QU-6" vertex="1">
          <mxGeometry x="1" width="20" height="20" relative="1" as="geometry">
            <mxPoint x="-27" y="7" as="offset" />
          </mxGeometry>
        </mxCell>
        <mxCell id="g3Y2_PPJZfDxpz8Cd1QU-8" value="&lt;div&gt;&amp;lt;&amp;lt;Python&amp;gt;&amp;gt;&lt;/div&gt;&lt;div&gt;Vector Query&lt;/div&gt;" style="html=1;dropTarget=0;whiteSpace=wrap;" parent="1" vertex="1">
          <mxGeometry x="160" y="360" width="130" height="50" as="geometry" />
        </mxCell>
        <mxCell id="g3Y2_PPJZfDxpz8Cd1QU-9" value="" style="shape=module;jettyWidth=8;jettyHeight=4;" parent="g3Y2_PPJZfDxpz8Cd1QU-8" vertex="1">
          <mxGeometry x="1" width="20" height="20" relative="1" as="geometry">
            <mxPoint x="-27" y="7" as="offset" />
          </mxGeometry>
        </mxCell>
        <mxCell id="g3Y2_PPJZfDxpz8Cd1QU-10" value="" style="endArrow=classic;html=1;rounded=0;entryX=1;entryY=0.5;entryDx=0;entryDy=0;exitX=0;exitY=0.5;exitDx=0;exitDy=0;" parent="1" source="g3Y2_PPJZfDxpz8Cd1QU-8" target="g3Y2_PPJZfDxpz8Cd1QU-1" edge="1">
          <mxGeometry width="50" height="50" relative="1" as="geometry">
            <mxPoint x="150" y="350" as="sourcePoint" />
            <mxPoint x="-30" y="350" as="targetPoint" />
            <Array as="points">
              <mxPoint x="80" y="385" />
              <mxPoint x="80" y="140" />
            </Array>
          </mxGeometry>
        </mxCell>
        <mxCell id="g3Y2_PPJZfDxpz8Cd1QU-11" value="nutzt" style="edgeLabel;html=1;align=center;verticalAlign=middle;resizable=0;points=[];" parent="g3Y2_PPJZfDxpz8Cd1QU-10" vertex="1" connectable="0">
          <mxGeometry x="-0.15" y="1" relative="1" as="geometry">
            <mxPoint x="1" y="-48" as="offset" />
          </mxGeometry>
        </mxCell>
        <mxCell id="g3Y2_PPJZfDxpz8Cd1QU-12" value="" style="endArrow=classic;html=1;rounded=0;exitX=0;exitY=0.5;exitDx=0;exitDy=0;entryX=1;entryY=0;entryDx=0;entryDy=0;" parent="1" source="ixln0vm2sEUoa1xezSHx-7" target="g3Y2_PPJZfDxpz8Cd1QU-8" edge="1">
          <mxGeometry width="50" height="50" relative="1" as="geometry">
            <mxPoint x="604" y="345" as="sourcePoint" />
            <mxPoint x="410" y="350" as="targetPoint" />
            <Array as="points">
              <mxPoint x="290" y="225" />
            </Array>
          </mxGeometry>
        </mxCell>
        <mxCell id="g3Y2_PPJZfDxpz8Cd1QU-13" value="führt aus" style="edgeLabel;html=1;align=center;verticalAlign=middle;resizable=0;points=[];" parent="g3Y2_PPJZfDxpz8Cd1QU-12" vertex="1" connectable="0">
          <mxGeometry x="-0.15" y="1" relative="1" as="geometry">
            <mxPoint x="-1" y="3" as="offset" />
          </mxGeometry>
        </mxCell>
        <mxCell id="g3Y2_PPJZfDxpz8Cd1QU-14" value="" style="endArrow=classic;html=1;rounded=0;exitX=0;exitY=0.5;exitDx=0;exitDy=0;entryX=1;entryY=0.5;entryDx=0;entryDy=0;" parent="1" source="ixln0vm2sEUoa1xezSHx-7" target="ixln0vm2sEUoa1xezSHx-23" edge="1">
          <mxGeometry width="50" height="50" relative="1" as="geometry">
            <mxPoint x="560" y="680" as="sourcePoint" />
            <mxPoint x="370" y="830" as="targetPoint" />
            <Array as="points">
              <mxPoint x="540" y="225" />
              <mxPoint x="540" y="465" />
            </Array>
          </mxGeometry>
        </mxCell>
        <mxCell id="g3Y2_PPJZfDxpz8Cd1QU-15" value="führt aus" style="edgeLabel;html=1;align=center;verticalAlign=middle;resizable=0;points=[];" parent="g3Y2_PPJZfDxpz8Cd1QU-14" vertex="1" connectable="0">
          <mxGeometry x="-0.15" y="1" relative="1" as="geometry">
            <mxPoint x="-1" y="19" as="offset" />
          </mxGeometry>
        </mxCell>
        <mxCell id="g3Y2_PPJZfDxpz8Cd1QU-17" value="" style="endArrow=classic;html=1;rounded=0;exitX=0.5;exitY=1;exitDx=0;exitDy=0;entryX=0.5;entryY=0;entryDx=0;entryDy=0;" parent="1" source="ixln0vm2sEUoa1xezSHx-7" target="ixln0vm2sEUoa1xezSHx-21" edge="1">
          <mxGeometry width="50" height="50" relative="1" as="geometry">
            <mxPoint x="740" y="585" as="sourcePoint" />
            <mxPoint x="550" y="735" as="targetPoint" />
            <Array as="points" />
          </mxGeometry>
        </mxCell>
        <mxCell id="g3Y2_PPJZfDxpz8Cd1QU-18" value="führt aus" style="edgeLabel;html=1;align=center;verticalAlign=middle;resizable=0;points=[];" parent="g3Y2_PPJZfDxpz8Cd1QU-17" vertex="1" connectable="0">
          <mxGeometry x="-0.15" y="1" relative="1" as="geometry">
            <mxPoint x="-1" y="3" as="offset" />
          </mxGeometry>
        </mxCell>
        <mxCell id="g3Y2_PPJZfDxpz8Cd1QU-19" value="" style="endArrow=classic;html=1;rounded=0;entryX=1;entryY=0.5;entryDx=0;entryDy=0;exitX=0;exitY=0.5;exitDx=0;exitDy=0;" parent="1" source="g3Y2_PPJZfDxpz8Cd1QU-6" target="ixln0vm2sEUoa1xezSHx-3" edge="1">
          <mxGeometry width="50" height="50" relative="1" as="geometry">
            <mxPoint x="230" y="630" as="sourcePoint" />
            <mxPoint x="50" y="630" as="targetPoint" />
            <Array as="points">
              <mxPoint x="320" y="385" />
              <mxPoint x="320" y="500" />
            </Array>
          </mxGeometry>
        </mxCell>
        <mxCell id="g3Y2_PPJZfDxpz8Cd1QU-20" value="nutzt" style="edgeLabel;html=1;align=center;verticalAlign=middle;resizable=0;points=[];" parent="g3Y2_PPJZfDxpz8Cd1QU-19" vertex="1" connectable="0">
          <mxGeometry x="-0.15" y="1" relative="1" as="geometry">
            <mxPoint x="-71" y="-1" as="offset" />
          </mxGeometry>
        </mxCell>
      </root>
    </mxGraphModel>
  </diagram>
</mxfile>
